<svg width="19" height="20" viewBox="0 0 19 20" fill="none" xmlns="http://www.w3.org/2000/svg">
<path fill-rule="evenodd" clip-rule="evenodd" d="M1.1875 10C1.1875 9.84255 1.25006 9.69152 1.36141 9.58017C1.47276 9.46882 1.62378 9.40627 1.78125 9.40627H15.7854L12.0484 5.67039C11.9369 5.5589 11.8743 5.40769 11.8743 5.25002C11.8743 5.09235 11.9369 4.94113 12.0484 4.82964C12.1599 4.71815 12.3111 4.65552 12.4688 4.65552C12.6264 4.65552 12.7776 4.71815 12.8891 4.82964L17.6391 9.57964C17.6944 9.6348 17.7383 9.70032 17.7682 9.77245C17.7982 9.84459 17.8136 9.92192 17.8136 10C17.8136 10.0781 17.7982 10.1554 17.7682 10.2276C17.7383 10.2997 17.6944 10.3652 17.6391 10.4204L12.8891 15.1704C12.7776 15.2819 12.6264 15.3445 12.4688 15.3445C12.3111 15.3445 12.1599 15.2819 12.0484 15.1704C11.9369 15.0589 11.8743 14.9077 11.8743 14.75C11.8743 14.5923 11.9369 14.4411 12.0484 14.3296L15.7854 10.5938H1.78125C1.62378 10.5938 1.47276 10.5312 1.36141 10.4199C1.25006 10.3085 1.1875 10.1575 1.1875 10Z" fill="#8B8D8D"/>
</svg>
